<?xml version="1.0" standalone="no"?>
<!DOCTYPE svg PUBLIC "-//W3C//DTD SVG 20010904//EN"
 "http://www.w3.org/TR/2001/REC-SVG-20010904/DTD/svg10.dtd">
<svg version="1.0" xmlns="http://www.w3.org/2000/svg"
 width="618.000000pt" height="428.000000pt" viewBox="0 0 618.000000 428.000000"
 preserveAspectRatio="xMidYMid meet">

<g transform="translate(0.000000,428.000000) scale(0.100000,-0.100000)"
fill="#000000" stroke="none">
<path d="M0 2140 l0 -2140 3090 0 3090 0 0 2140 0 2140 -3090 0 -3090 0 0
-2140z m3564 745 c34 -33 73 -76 86 -95 13 -19 -8 -1 -48 41 -39 42 -96 93
-127 114 -30 21 -55 40 -55 42 0 13 92 -52 144 -102z m-486 18 c-15 -2 -42 -2
-60 0 -18 2 -6 4 27 4 33 0 48 -2 33 -4z m427 -113 c10 -11 16 -20 13 -20 -3
0 -13 9 -23 20 -10 11 -16 20 -13 20 3 0 13 -9 23 -20z m-67 -74 c37 -34 112
-142 112 -160 0 -6 -13 12 -29 39 -30 53 -90 119 -156 174 l-40 33 40 -27 c22
-16 55 -42 73 -59z m-223 -70 c35 -15 51 -34 18 -22 -21 8 -20 7 38 -37 65
-49 84 -33 27 23 -32 32 -35 38 -13 23 39 -28 80 -71 73 -79 -4 -3 3 -26 14
-50 15 -36 17 -51 9 -77 -5 -18 -12 -41 -14 -52 -3 -11 -3 -4 -2 15 2 19 6 44
11 55 4 11 3 17 -1 13 -11 -11 -46 48 -39 66 3 8 0 17 -7 22 -9 5 -10 2 -5
-12 5 -12 -5 -7 -29 16 -20 19 -38 34 -40 33 -3 -2 -19 6 -36 16 -21 13 -27
21 -18 26 8 6 5 12 -12 21 -32 18 -17 17 26 0z m186 -90 c21 -32 39 -63 39
-70 -1 -6 -6 -1 -13 12 -7 12 -17 19 -22 15 -4 -4 -5 -2 -1 5 4 6 3 12 -3 12
-5 0 -13 10 -17 23 -3 12 -22 42 -42 67 -29 36 -30 40 -8 20 15 -14 45 -51 67
-84z m10 67 c13 -16 12 -17 -3 -4 -17 13 -22 21 -14 21 2 0 10 -8 17 -17z
m-235 -17 c69 -32 118 -77 147 -137 14 -27 27 -45 29 -39 1 5 2 -25 2 -69 -1
-43 -8 -96 -15 -117 -7 -22 -13 -48 -14 -58 -3 -27 -102 -119 -120 -112 -8 3
-15 1 -15 -4 0 -5 -7 -7 -15 -4 -8 4 -27 -1 -41 -10 -16 -11 -40 -16 -67 -14
l-42 3 -3 262 -2 262 37 -4 38 -4 -37 11 c-30 9 -38 17 -38 35 0 21 4 23 53
23 34 0 70 -9 103 -24z m298 -87 c16 -35 29 -84 31 -117 l4 -57 -9 60 c-5 33
-25 90 -43 127 -18 37 -28 63 -21 57 6 -5 24 -36 38 -70z m-94 11 c6 -11 8
-20 6 -20 -3 0 -10 9 -16 20 -6 11 -8 20 -6 20 3 0 10 -9 16 -20z m77 -122
c-3 -8 -6 -5 -6 6 -1 11 2 17 5 13 3 -3 4 -12 1 -19z m26 -92 c3 -66 2 -74 -8
-50 -9 25 -11 73 -5 134 3 29 9 -6 13 -84z m144 72 c-3 -8 -6 -5 -6 6 -1 11 2
17 5 13 3 -3 4 -12 1 -19z m-229 -78 c-3 -50 -2 -93 3 -96 5 -3 -1 -23 -13
-44 -13 -21 -25 -37 -28 -35 -3 2 -7 -5 -7 -16 -2 -18 0 -19 15 -7 15 12 16
11 3 -5 -10 -12 -17 -15 -24 -8 -16 16 -46 -16 -39 -41 4 -16 2 -19 -8 -13 -8
5 -11 4 -6 -3 3 -6 -3 -16 -15 -22 -15 -8 -19 -8 -15 -1 5 7 1 8 -10 4 -13 -5
-15 -3 -9 7 5 9 4 11 -4 6 -9 -6 -9 -11 -1 -21 15 -18 -5 -29 -27 -15 -15 9
-14 10 7 5 19 -5 21 -4 9 4 -16 10 -62 4 -55 -8 2 -3 -8 -6 -22 -7 -15 0 -49
-2 -76 -4 -33 -3 -51 0 -54 8 -2 7 5 12 15 13 16 0 16 1 -2 9 -11 5 -14 9 -7
9 7 1 22 -4 33 -10 13 -7 24 -7 32 -1 7 6 28 12 47 14 47 5 101 32 135 68 16
17 34 30 39 30 15 0 38 39 31 51 -4 5 -1 8 7 7 8 -2 14 8 16 27 1 17 5 65 8
108 9 111 28 100 22 -13z m329 48 c-3 -8 -6 -5 -6 6 -1 11 2 17 5 13 3 -3 4
-12 1 -19z m5 -57 c2 -17 1 -28 -4 -25 -8 5 -12 54 -4 54 2 0 6 -13 8 -29z
m-365 -13 c-3 -8 -6 -5 -6 6 -1 11 2 17 5 13 3 -3 4 -12 1 -19z m140 -10 c-3
-8 -6 -5 -6 6 -1 11 2 17 5 13 3 -3 4 -12 1 -19z m-80 -20 c-3 -8 -6 -5 -6 6
-1 11 2 17 5 13 3 -3 4 -12 1 -19z m-92 -168 c-3 -5 -1 -10 5 -10 6 0 8 -5 4
-12 -6 -9 -9 -9 -12 0 -2 7 -9 9 -15 5 -7 -4 -6 1 2 10 15 18 26 23 16 7z
m-242 -117 c-7 -2 -21 -2 -30 0 -10 3 -4 5 12 5 17 0 24 -2 18 -5z m137 -3
c-8 -5 -19 -10 -25 -10 -5 0 -3 5 5 10 8 5 20 10 25 10 6 0 3 -5 -5 -10z m38
-14 c-10 -7 -14 -17 -10 -21 4 -5 1 -5 -7 0 -12 7 -11 10 4 22 24 17 36 17 13
-1z m-119 -11 c2 -3 -27 -5 -65 -4 -49 1 -62 3 -44 9 24 7 100 4 109 -5z m38
9 c-3 -3 -12 -4 -19 -1 -8 3 -5 6 6 6 11 1 17 -2 13 -5z m8 -34 c3 -6 -1 -7
-9 -4 -18 7 -21 14 -7 14 6 0 13 -4 16 -10z m115 5 c0 -6 -56 -35 -67 -35 -4
1 8 9 27 20 39 22 40 22 40 15z m-156 -13 c3 -5 -23 -9 -57 -9 -56 -1 -58 0
-22 7 58 11 73 11 79 2z m216 -6 c0 -9 -88 -55 -116 -61 -16 -4 3 9 41 28 79
40 75 38 75 33z m-250 -36 c13 -9 13 -10 0 -9 -8 1 -26 5 -40 9 l-25 8 25 1
c14 0 32 -4 40 -9z m-83 -6 c-3 -3 -12 -4 -19 -1 -8 3 -5 6 6 6 11 1 17 -2 13
-5z m96 -241 c-13 -2 -33 -2 -45 0 -13 2 -3 4 22 4 25 0 35 -2 23 -4z m-337
-334 c9 -15 -11 -33 -30 -26 -9 4 -13 13 -10 22 7 17 30 20 40 4z m984 -82 c0
-59 4 -97 12 -105 9 -9 6 -12 -15 -12 -15 0 -27 5 -27 12 0 9 -3 9 -12 0 -20
-20 -76 -15 -88 7 -30 57 6 127 62 119 29 -5 30 -3 26 28 -4 32 1 38 35 43 4
0 7 -41 7 -92z m718 70 c2 -12 -3 -17 -17 -17 -12 0 -21 6 -21 13 0 31 32 34
38 4z m-3071 -2 c8 -23 -5 -31 -27 -17 -11 7 -31 12 -45 12 -22 0 -25 -4 -25
-36 0 -36 0 -36 40 -32 37 3 40 2 40 -21 0 -19 -3 -22 -12 -13 -7 7 -25 12
-40 12 -26 0 -28 -3 -28 -40 0 -40 0 -40 39 -40 22 0 43 5 46 10 9 15 25 12
25 -5 0 -12 -16 -15 -87 -15 -68 0 -84 3 -75 12 15 15 16 154 2 163 -26 16 -3
25 65 25 59 0 77 -3 82 -15z m848 5 c3 -5 1 -10 -4 -10 -6 0 -11 -16 -11 -35
0 -34 1 -35 40 -35 38 0 40 2 40 29 0 17 -4 33 -10 36 -22 13 -8 25 30 25 38
0 52 -12 30 -25 -14 -9 -13 -148 2 -163 9 -9 2 -12 -32 -11 -25 0 -39 3 -32 6
7 2 12 22 12 44 0 39 0 39 -40 39 -40 0 -40 0 -40 -39 0 -22 5 -42 13 -44 6
-3 -10 -5 -38 -5 -27 0 -44 2 -37 5 15 6 17 173 1 173 -5 0 -7 5 -4 10 3 6 21
10 40 10 19 0 37 -4 40 -10z m1323 -14 c3 -15 0 -17 -14 -11 -11 4 -34 10 -51
13 -32 4 -33 3 -33 -33 l0 -37 40 4 c37 3 40 2 40 -21 0 -19 -3 -22 -12 -13
-7 7 -25 12 -40 12 -26 0 -28 -3 -28 -40 0 -40 0 -40 39 -40 22 0 43 5 46 10
9 15 25 12 25 -5 0 -12 -16 -15 -87 -15 -68 0 -84 3 -75 12 15 15 16 154 2
163 -28 17 -4 26 67 23 67 -3 78 -6 81 -22z m-1522 -36 c8 0 14 -4 14 -10 0
-5 -7 -10 -15 -10 -11 0 -15 -13 -15 -54 0 -49 2 -55 23 -59 14 -3 8 -5 -15
-6 -35 -1 -37 1 -42 32 -14 87 -13 99 8 123 20 22 21 22 24 4 2 -11 10 -20 18
-20z m2314 14 c0 -8 7 -14 15 -14 8 0 15 -4 15 -10 0 -5 -7 -10 -15 -10 -11 0
-15 -13 -15 -54 0 -49 2 -55 23 -59 14 -3 8 -5 -15 -6 -42 -1 -45 5 -50 84 -1
31 3 58 12 72 15 23 30 22 30 -3z m-2866 -29 c-3 -8 2 -35 12 -61 l18 -47 13
39 c8 22 12 49 10 62 -4 18 0 22 22 22 l27 0 -34 -70 c-18 -38 -40 -70 -48
-70 -7 0 -29 32 -47 70 l-33 70 33 0 c24 0 31 -4 27 -15z m244 -1 c15 -10 22
-24 20 -37 -3 -19 -11 -22 -50 -25 -32 -2 -48 -8 -48 -16 0 -24 28 -38 61 -31
22 5 29 4 25 -4 -4 -6 -27 -11 -51 -11 -34 0 -47 5 -59 22 -49 70 32 151 102
102z m102 4 c0 -9 3 -9 12 0 15 15 61 15 76 0 7 -7 12 -33 12 -58 0 -25 5 -51
12 -58 9 -9 6 -12 -15 -12 -26 0 -27 2 -27 55 0 61 -13 75 -50 55 -19 -10 -21
-19 -18 -61 3 -47 2 -49 -22 -49 -24 0 -25 2 -22 60 3 39 0 60 -7 60 -6 0 -11
5 -11 10 0 6 14 10 30 10 17 0 30 -5 30 -12z m685 -13 c28 -27 31 -45 14 -78
-16 -30 -28 -37 -68 -37 -45 0 -71 24 -71 67 0 68 76 98 125 48z m98 -2 c3
-15 3 -43 0 -61 -4 -23 -1 -37 8 -43 9 -6 1 -8 -26 -8 -22 0 -34 3 -27 6 15 6
17 113 2 113 -5 0 -10 5 -10 10 0 6 11 10 24 10 18 0 25 -7 29 -27z m67 13 c0
-8 -13 -16 -30 -18 -32 -5 -37 1 -18 20 16 16 48 15 48 -2z m82 -56 c3 -69 3
-70 -22 -70 -24 0 -25 2 -25 70 0 65 2 70 22 70 20 0 22 -6 25 -70z m123 8
l-46 -63 32 -3 c19 -2 35 2 40 9 4 8 11 10 14 7 17 -16 -11 -28 -66 -28 -32 0
-59 3 -59 6 0 4 16 28 35 54 19 26 35 51 35 55 0 4 -16 5 -35 3 -24 -3 -35 0
-35 9 0 9 18 13 65 13 l65 0 -45 -62z m195 42 c24 -24 26 -77 3 -102 -19 -22
-95 -25 -112 -5 -6 8 -14 28 -17 45 -13 64 79 109 126 62z m100 10 c0 -7 6 -7
19 0 26 13 68 13 77 -1 3 -6 10 -38 13 -70 7 -57 7 -59 -16 -59 -21 0 -23 4
-23 55 0 61 -13 75 -49 55 -16 -8 -21 -20 -21 -55 0 -25 5 -45 13 -48 6 -3 -4
-6 -23 -6 l-35 -1 0 70 c0 66 1 70 23 70 12 0 22 -5 22 -10z m650 -49 c0 -62
12 -77 47 -64 11 4 14 3 9 -5 -4 -7 -23 -12 -41 -12 -41 0 -51 15 -57 88 -5
49 -4 52 18 52 23 0 24 -4 24 -59z m100 1 c0 -32 5 -63 12 -70 9 -9 6 -12 -15
-12 -15 0 -27 3 -28 8 0 4 -1 35 -2 70 -2 53 1 62 16 62 14 0 17 -9 17 -58z
m161 48 c10 -6 19 -17 19 -25 0 -20 -29 -19 -36 0 -7 18 -35 20 -52 3 -18 -18
-15 -53 7 -79 17 -21 22 -22 46 -11 21 10 26 10 23 0 -5 -15 -50 -22 -82 -14
-22 5 -46 43 -46 72 0 24 47 64 75 64 15 0 35 -5 46 -10z m157 -2 c7 -7 12
-33 12 -58 0 -25 5 -51 12 -58 9 -9 6 -12 -14 -12 -29 0 -39 17 -31 49 6 25
-13 28 -42 8 -21 -16 -12 -37 16 -37 11 0 17 -4 14 -10 -10 -16 -61 -12 -76 6
-19 23 0 46 49 62 46 15 50 23 26 43 -14 11 -19 9 -34 -11 -16 -21 -21 -23
-32 -12 -11 11 -10 16 6 28 24 17 78 18 94 2z m212 -52 c0 -42 4 -66 13 -69 6
-3 -6 -6 -27 -6 -31 -1 -37 2 -28 11 14 14 16 94 2 103 -18 11 -10 25 15 25
24 0 25 -2 25 -64z m167 42 c27 -25 30 -64 7 -96 -12 -17 -25 -22 -59 -22 -34
0 -47 5 -59 22 -52 74 45 158 111 96z m103 10 c0 -9 3 -9 12 0 15 15 61 15 76
0 7 -7 12 -33 12 -58 0 -25 5 -51 12 -58 9 -9 6 -12 -15 -12 -26 0 -27 2 -27
49 0 58 -17 79 -50 61 -19 -10 -21 -19 -18 -61 3 -47 2 -49 -22 -49 -24 0 -25
2 -22 60 3 39 0 60 -7 60 -6 0 -11 5 -11 10 0 6 14 10 30 10 17 0 30 -5 30
-12z"/>
<path d="M3370 2235 c0 -5 5 -17 10 -25 5 -8 10 -10 10 -5 0 6 -5 17 -10 25
-5 8 -10 11 -10 5z"/>
<path d="M3685 1187 c-12 -46 -2 -72 25 -72 23 0 25 4 25 45 0 39 -3 45 -22
48 -17 2 -24 -3 -28 -21z"/>
<path d="M1702 1208 c-21 -21 -13 -38 18 -38 23 0 30 5 30 19 0 10 -7 22 -16
25 -20 8 -18 8 -32 -6z"/>
<path d="M2477 1203 c-13 -12 -7 -81 8 -93 34 -28 65 21 46 73 -10 25 -38 36
-54 20z"/>
<path d="M3034 1183 c-9 -34 15 -78 41 -78 22 0 31 38 21 81 -9 35 -53 33 -62
-3z"/>
<path d="M4587 1203 c-22 -21 4 -103 32 -103 28 0 40 54 21 91 -10 19 -40 26
-53 12z"/>
</g>
</svg>
